# xmcd
#
# Track frame offsets:
#	150
#	19176
#	35210
#	55610
#	74165
#	89925
#	109672
#	125812
#	144622
#	163363
#	182316
#	200458
#	219841
#	240073
#	260615
#	286148
#
# Disc length: 3827 seconds
#
# Revision: 3
# Processed by: cddbd v1.5.2PL0 Copyright (c) Steve Scherf et al.
# Submitted via: audiograbber 1.83.01
#
DISCID=f30ef110
DTITLE=Sound Choice Karaoke - SC8854
DYEAR=2003
DGENRE=Karaoke
TTITLE0=Alan Jackson and Jimmy Buffett - It's Five O'Clock Somewhere
TTITLE1=Randy Travis - Three Wooden Crosses
TTITLE2=Pat Green - Wave on Wave
TTITLE3=Gary Allan - Man To Man
TTITLE4=Mark Wills - 19 Somethin'
TTITLE5=Joe Nichols - Brokenheartsville
TTITLE6=Toby Keith and Willie Nelson - Beer For My Horses
TTITLE7=Brooks and Dunn - Red Dirt Road (Radio Version)
TTITLE8=Darryl Worley - Have You Forgotten
TTITLE9=Dierks Bentley - What Was I Thinkin'
TTITLE10=Keith Urban - Somebody Like You
TTITLE11=Kenny Chesney - Big Star
TTITLE12=Toby Keith - Who's Your Daddy?
TTITLE13=Tim McGraw - She's My Kind of Rain
TTITLE14=George Strait - She'll Leave You With A Smile
TTITLE15=Data - Data Track
EXTD=
EXTT0=
EXTT1=
EXTT2=
EXTT3=
EXTT4=
EXTT5=
EXTT6=
EXTT7=
EXTT8=
EXTT9=
EXTT10=
EXTT11=
EXTT12=
EXTT13=
EXTT14=
EXTT15=
PLAYORDER=
